<svg data-v-423bf9ae="" xmlns="http://www.w3.org/2000/svg" viewBox="0 0 482 90" class="iconLeft"><!----><!----><!----><g data-v-423bf9ae="" id="a50f09fd-eb9e-4cea-807e-afed4949b8a5" fill="black" transform="matrix(6.269592676418792,0,0,6.269592676418792,105.73668869255164,-11.081504577238256)"><path d="M9.04 8.52L5.41 8.52L5.41 9.61L7.71 9.61L7.70 11.74C7.38 12.00 6.89 12.52 5.51 12.52C3.46 12.52 1.94 10.99 1.94 8.94C1.94 6.89 3.46 5.36 5.51 5.36C6.90 5.36 7.64 6.07 8.26 6.49L8.26 5.14C7.62 4.57 6.84 4.16 5.51 4.16C2.75 4.16 0.68 6.32 0.68 8.94C0.68 11.57 2.75 13.73 5.51 13.73C7.11 13.73 8.38 12.99 9.04 12.28ZM16.34 6.69L15.18 6.69L15.18 10.73C15.18 11.92 14.36 12.56 13.44 12.56C12.52 12.56 11.70 11.92 11.70 10.73L11.70 6.69L10.54 6.69L10.54 10.73C10.54 12.54 11.80 13.66 13.44 13.66C15.08 13.66 16.34 12.54 16.34 10.73ZM21.81 6.55C20.88 6.55 20.00 7.23 19.58 7.77L19.58 6.69L18.46 6.69L18.46 13.52L19.58 13.52L19.58 8.98C20.13 8.27 20.89 7.64 21.62 7.64C22.70 7.64 23.20 8.29 23.20 9.46L23.21 13.52L24.34 13.52L24.34 9.35C24.34 7.46 23.20 6.55 21.81 6.55ZM29.27 6.55C27.40 6.55 25.98 7.96 25.98 10.21C25.98 12.29 27.40 13.73 29.16 13.73C30.20 13.73 31.04 13.08 31.51 12.36L31.51 13.52L32.63 13.52L32.63 6.69L31.51 6.69L31.51 7.60C30.93 6.95 30.05 6.55 29.27 6.55ZM29.48 7.64C30.31 7.64 30.93 8.07 31.50 8.78L31.51 10.09C31.53 11.55 30.58 12.63 29.34 12.63C28.01 12.63 27.14 11.54 27.14 10.21C27.14 8.89 28.01 7.64 29.48 7.64ZM39.31 4.16C36.54 4.16 34.48 6.32 34.48 8.94C34.48 11.57 36.54 13.73 39.31 13.73C42.07 13.73 44.13 11.57 44.13 8.94C44.13 6.32 42.07 4.16 39.31 4.16ZM39.31 5.36C41.36 5.36 42.88 6.89 42.88 8.94C42.88 10.99 41.36 12.52 39.31 12.52C37.26 12.52 35.74 10.99 35.74 8.94C35.74 6.89 37.26 5.36 39.31 5.36ZM49.33 6.55C48.40 6.55 47.52 7.23 47.10 7.77L47.10 6.69L45.98 6.69L45.98 13.52L47.10 13.52L47.10 8.98C47.65 8.27 48.41 7.64 49.14 7.64C50.22 7.64 50.72 8.29 50.72 9.46L50.74 13.52L51.86 13.52L51.86 9.35C51.86 7.46 50.72 6.55 49.33 6.55ZM59.94 9.87C59.94 8.00 58.90 6.55 56.79 6.55C54.87 6.55 53.50 8.20 53.50 10.14C53.50 12.09 54.99 13.73 57.07 13.73C58.13 13.73 58.84 13.26 59.12 12.99L59.12 11.85C58.67 12.18 58.05 12.63 57.07 12.63C55.75 12.63 54.85 11.69 54.69 10.54L59.94 10.54ZM54.71 9.58C54.91 8.50 55.67 7.64 56.79 7.64C57.75 7.64 58.69 8.26 58.83 9.58Z"></path></g><!----><g data-v-423bf9ae="" id="3fe6db00-bbae-48d7-b43f-d6bbef1d67fd" transform="matrix(2.8125,0,0,2.8125,0,0)" stroke="none" fill="black"><path d="M16 32c8.837 0 16-7.163 16-16S24.837 0 16 0 0 7.163 0 16s7.163 16 16 16zM14.817 6.421h2v8.886h8.887v2H14.817V6.421zm-5.959.437h2v14.283h14.283v2H8.858V6.858z"></path></g><!----></svg>